{
  "asset": {
    "version": "2.0",
    "generator": "THREE.GLTFExporter"
  },
  "scenes": [
    {
      "nodes": [
        1
      ],
      "name": "Scene"
    }
  ],
  "scene": 0,
  "nodes": [
    {
      "matrix": [
        1,
        0,
        0,
        0,
        0,
        -1.1920928977282498e-7,
        -0.9999998807907106,
        0,
        0,
        0.9999998807907106,
        -1.1920928977282498e-7,
        0,
        248.13958740234375,
        0.000005094636435387656,
        222.69586181640625,
        1
      ],
      "name": "mesh_0",
      "mesh": 0
    },
    {
      "name": "DriedTree",
      "children": [
        0
      ]
    }
  ],
  "bufferViews": [
    {
      "buffer": 0,
      "byteOffset": 0,
      "byteLength": 1356,
      "target": 34962,
      "byteStride": 12
    },
    {
      "buffer": 0,
      "byteOffset": 1356,
      "byteLength": 2664,
      "target": 34963
    }
  ],
  "buffers": [
    {
      "byteLength": 4020,
      "uri": "data:application/octet-stream;base64,"
    }
  ],
  "accessors": [
    {
      "bufferView": 0,
      "componentType": 5126,
      "count": 113,
      "max": [
        -206.76806640625,
        276.74151611328125,
        199.93467712402344
      ],
      "min": [
        -289.51104736328125,
        168.65029907226562,
        0.00002145414509868715
      ],
      "type": "VEC3"
    },
    {
      "bufferView": 1,
      "componentType": 5125,
      "count": 666,
      "max": [
        112
      ],
      "min": [
        0
      ],
      "type": "SCALAR"
    }
  ],
  "materials": [
    {
      "pbrMetallicRoughness": {
        "baseColorFactor": [
          0.06372079253196716,
          0.021999899297952652,
          0.004518469329923391,
          1
        ],
        "metallicFactor": 0,
        "roughnessFactor": 1
      },
      "name": "DriedTreeMaterial"
    }
  ],
  "meshes": [
    {
      "primitives": [
        {
          "mode": 4,
          "attributes": {
            "POSITION": 0
          },
          "indices": 1,
          "material": 0
        }
      ]
    }
  ]
}
