{
  "asset": {
    "version": "2.0",
    "generator": "THREE.GLTFExporter"
  },
  "scenes": [
    {
      "nodes": [
        1
      ],
      "name": "Scene"
    }
  ],
  "scene": 0,
  "nodes": [
    {
      "matrix": [
        1,
        0,
        0,
        0,
        0,
        -1.1920928977282498e-7,
        -0.9999998807907106,
        0,
        0,
        0.9999998807907106,
        -1.1920928977282498e-7,
        0,
        24.667808532714844,
        0.6682799458503723,
        28.597970962524414,
        1
      ],
      "name": "mesh_0",
      "mesh": 0
    },
    {
      "name": "Fern",
      "children": [
        0
      ]
    }
  ],
  "bufferViews": [
    {
      "buffer": 0,
      "byteOffset": 0,
      "byteLength": 5424,
      "target": 34962,
      "byteStride": 12
    },
    {
      "buffer": 0,
      "byteOffset": 5424,
      "byteLength": 10008,
      "target": 34963
    }
  ],
  "buffers": [
    {
      "byteLength": 15432,
      "uri": "data:application/octet-stream;base64,"
    }
  ],
  "accessors": [
    {
      "bufferView": 0,
      "componentType": 5126,
      "count": 452,
      "max": [
        16.198156356811523,
        69.65390014648438,
        59.12751007080078
      ],
      "min": [
        -65.53377532958984,
        -12.457948684692383,
        0.000008254704880528152
      ],
      "type": "VEC3"
    },
    {
      "bufferView": 1,
      "componentType": 5125,
      "count": 2502,
      "max": [
        451
      ],
      "min": [
        0
      ],
      "type": "SCALAR"
    }
  ],
  "materials": [
    {
      "pbrMetallicRoughness": {
        "baseColorFactor": [
          0.06237569823861122,
          0.800000011920929,
          0.00575006939470768,
          1
        ],
        "metallicFactor": 0,
        "roughnessFactor": 1
      },
      "name": "FernMaterial"
    }
  ],
  "meshes": [
    {
      "primitives": [
        {
          "mode": 4,
          "attributes": {
            "POSITION": 0
          },
          "indices": 1,
          "material": 0
        }
      ]
    }
  ]
}
