{
  "asset": {
    "version": "2.0",
    "generator": "THREE.GLTFExporter"
  },
  "scenes": [
    {
      "nodes": [
        5
      ],
      "name": "Scene"
    }
  ],
  "scene": 0,
  "nodes": [
    {
      "matrix": [
        39.370079040527344,
        0,
        0,
        0,
        0,
        -0.000004693279160553429,
        -39.37007522583008,
        0,
        0,
        39.37007522583008,
        -0.000004693279160553429,
        0,
        -111.24151611328125,
        0.13223132491111755,
        52.21171951293945,
        1
      ],
      "name": "mesh_1",
      "mesh": 0
    },
    {
      "matrix": [
        39.370079040527344,
        0,
        0,
        0,
        0,
        -0.000004693279160553429,
        -39.37007522583008,
        0,
        0,
        39.37007522583008,
        -0.000004693279160553429,
        0,
        -111.24151611328125,
        0.13223132491111755,
        52.21171951293945,
        1
      ],
      "name": "mesh_2",
      "mesh": 1
    },
    {
      "matrix": [
        39.370079040527344,
        0,
        0,
        0,
        0,
        -0.000004693279160553429,
        -39.37007522583008,
        0,
        0,
        39.37007522583008,
        -0.000004693279160553429,
        0,
        -111.24151611328125,
        0.13223132491111755,
        52.21171951293945,
        1
      ],
      "name": "mesh_3",
      "mesh": 2
    },
    {
      "children": [
        0,
        1,
        2
      ]
    },
    {
      "matrix": [
        39.370079040527344,
        0,
        0,
        0,
        0,
        -0.000004693279160553429,
        -39.37007522583008,
        0,
        0,
        39.37007522583008,
        -0.000004693279160553429,
        0,
        -111.24151611328125,
        0.13223639130592346,
        52.21171951293945,
        1
      ],
      "name": "mesh_0",
      "mesh": 3
    },
    {
      "name": "Plant",
      "children": [
        3,
        4
      ]
    }
  ],
  "bufferViews": [
    {
      "buffer": 0,
      "byteOffset": 0,
      "byteLength": 492,
      "target": 34962,
      "byteStride": 12
    },
    {
      "buffer": 0,
      "byteOffset": 492,
      "byteLength": 936,
      "target": 34963
    },
    {
      "buffer": 0,
      "byteOffset": 1428,
      "byteLength": 492,
      "target": 34962,
      "byteStride": 12
    },
    {
      "buffer": 0,
      "byteOffset": 1920,
      "byteLength": 936,
      "target": 34963
    },
    {
      "buffer": 0,
      "byteOffset": 2856,
      "byteLength": 492,
      "target": 34962,
      "byteStride": 12
    },
    {
      "buffer": 0,
      "byteOffset": 3348,
      "byteLength": 936,
      "target": 34963
    },
    {
      "buffer": 0,
      "byteOffset": 4284,
      "byteLength": 4704,
      "target": 34962,
      "byteStride": 12
    },
    {
      "buffer": 0,
      "byteOffset": 8988,
      "byteLength": 9408,
      "target": 34963
    }
  ],
  "buffers": [
    {
      "byteLength": 18396,
      "uri": "data:application/octet-stream;base64,"
    }
  ],
  "accessors": [
    {
      "bufferView": 0,
      "componentType": 5126,
      "count": 41,
      "max": [
        2.917405843734741,
        1.4271564483642578,
        1.6771551370620728
      ],
      "min": [
        2.722181558609009,
        1.2319828271865845,
        1.4135030508041382
      ],
      "type": "VEC3"
    },
    {
      "bufferView": 1,
      "componentType": 5125,
      "count": 234,
      "max": [
        40
      ],
      "min": [
        0
      ],
      "type": "SCALAR"
    },
    {
      "bufferView": 2,
      "componentType": 5126,
      "count": 41,
      "max": [
        3.307194232940674,
        1.3975908756256104,
        1.3886619806289673
      ],
      "min": [
        3.104146718978882,
        1.2615485191345215,
        1.238497018814087
      ],
      "type": "VEC3"
    },
    {
      "bufferView": 3,
      "componentType": 5125,
      "count": 234,
      "max": [
        40
      ],
      "min": [
        0
      ],
      "type": "SCALAR"
    },
    {
      "bufferView": 4,
      "componentType": 5126,
      "count": 41,
      "max": [
        2.638310670852661,
        1.601959228515625,
        1.120387077331543
      ],
      "min": [
        2.4894158840179443,
        1.4672377109527588,
        0.9950634837150574
      ],
      "type": "VEC3"
    },
    {
      "bufferView": 5,
      "componentType": 5125,
      "count": 234,
      "max": [
        40
      ],
      "min": [
        0
      ],
      "type": "SCALAR"
    },
    {
      "bufferView": 6,
      "componentType": 5126,
      "count": 392,
      "max": [
        3.7815909385681152,
        2.266993761062622,
        1.413453459739685
      ],
      "min": [
        1.869478702545166,
        0.38536185026168823,
        -0.0033586465287953615
      ],
      "type": "VEC3"
    },
    {
      "bufferView": 7,
      "componentType": 5125,
      "count": 2352,
      "max": [
        391
      ],
      "min": [
        0
      ],
      "type": "SCALAR"
    }
  ],
  "materials": [
    {
      "pbrMetallicRoughness": {
        "baseColorFactor": [
          0.800000011920929,
          0.003721039742231369,
          0.0074792285449802876,
          1
        ],
        "metallicFactor": 0,
        "roughnessFactor": 1
      },
      "name": "material"
    },
    {
      "pbrMetallicRoughness": {
        "baseColorFactor": [
          0.04898079112172127,
          0.800000011920929,
          0.052432503551244736,
          1
        ],
        "metallicFactor": 0,
        "roughnessFactor": 1
      },
      "name": "PlantGrass"
    }
  ],
  "meshes": [
    {
      "primitives": [
        {
          "mode": 4,
          "attributes": {
            "POSITION": 0
          },
          "indices": 1,
          "material": 0
        }
      ]
    },
    {
      "primitives": [
        {
          "mode": 4,
          "attributes": {
            "POSITION": 2
          },
          "indices": 3,
          "material": 0
        }
      ]
    },
    {
      "primitives": [
        {
          "mode": 4,
          "attributes": {
            "POSITION": 4
          },
          "indices": 5,
          "material": 0
        }
      ]
    },
    {
      "primitives": [
        {
          "mode": 4,
          "attributes": {
            "POSITION": 6
          },
          "indices": 7,
          "material": 1
        }
      ]
    }
  ]
}
