{
  "asset": {
    "version": "2.0",
    "generator": "THREE.GLTFExporter"
  },
  "scenes": [
    {
      "nodes": [
        1
      ],
      "name": "Scene"
    }
  ],
  "scene": 0,
  "nodes": [
    {
      "matrix": [
        1,
        0,
        0,
        0,
        0,
        -1.1920928977282498e-7,
        -0.9999998807907106,
        0,
        0,
        0.9999998807907106,
        -1.1920928977282498e-7,
        0,
        -203.39468383789062,
        -0.000002301076165167615,
        -109.52360534667969,
        1
      ],
      "name": "mesh_0",
      "mesh": 0
    },
    {
      "name": "SandRock1",
      "children": [
        0
      ]
    }
  ],
  "bufferViews": [
    {
      "buffer": 0,
      "byteOffset": 0,
      "byteLength": 360,
      "target": 34962,
      "byteStride": 12
    },
    {
      "buffer": 0,
      "byteOffset": 360,
      "byteLength": 672,
      "target": 34963
    }
  ],
  "buffers": [
    {
      "byteLength": 1032,
      "uri": "data:application/octet-stream;base64,"
    }
  ],
  "accessors": [
    {
      "bufferView": 0,
      "componentType": 5126,
      "count": 30,
      "max": [
        243.64402770996094,
        -67.7353286743164,
        39.567970275878906
      ],
      "min": [
        163.14537048339844,
        -151.31190490722656,
        -0.000010791962267830968
      ],
      "type": "VEC3"
    },
    {
      "bufferView": 1,
      "componentType": 5125,
      "count": 168,
      "max": [
        29
      ],
      "min": [
        0
      ],
      "type": "SCALAR"
    }
  ],
  "materials": [
    {
      "pbrMetallicRoughness": {
        "baseColorFactor": [
          0.6618639230728149,
          0.47172901034355164,
          0.2597210109233856,
          1
        ],
        "metallicFactor": 0,
        "roughnessFactor": 1
      },
      "name": "SandRockMaterial"
    }
  ],
  "meshes": [
    {
      "primitives": [
        {
          "mode": 4,
          "attributes": {
            "POSITION": 0
          },
          "indices": 1,
          "material": 0
        }
      ]
    }
  ]
}
