{
  "asset": {
    "version": "2.0",
    "generator": "THREE.GLTFExporter"
  },
  "scenes": [
    {
      "nodes": [
        2
      ],
      "name": "Scene"
    }
  ],
  "scene": 0,
  "nodes": [
    {
      "matrix": [
        1,
        0,
        0,
        0,
        0,
        -1.1920928977282498e-7,
        -0.9999998807907106,
        0,
        0,
        0.9999998807907106,
        -1.1920928977282498e-7,
        0,
        -234.1859588623047,
        0.0000028736976673826575,
        231.9798583984375,
        1
      ],
      "name": "mesh_0",
      "mesh": 0
    },
    {
      "matrix": [
        1,
        0,
        0,
        0,
        0,
        -1.1920928977282498e-7,
        -0.9999998807907106,
        0,
        0,
        0.9999998807907106,
        -1.1920928977282498e-7,
        0,
        -234.1859588623047,
        0.0000028736976673826575,
        231.9798583984375,
        1
      ],
      "name": "mesh_1",
      "mesh": 1
    },
    {
      "name": "Tree3",
      "children": [
        0,
        1
      ]
    }
  ],
  "bufferViews": [
    {
      "buffer": 0,
      "byteOffset": 0,
      "byteLength": 384,
      "target": 34962,
      "byteStride": 12
    },
    {
      "buffer": 0,
      "byteOffset": 384,
      "byteLength": 648,
      "target": 34963
    },
    {
      "buffer": 0,
      "byteOffset": 1032,
      "byteLength": 588,
      "target": 34962,
      "byteStride": 12
    },
    {
      "buffer": 0,
      "byteOffset": 1620,
      "byteLength": 1056,
      "target": 34963
    }
  ],
  "buffers": [
    {
      "byteLength": 2676,
      "uri": "data:application/octet-stream;base64,"
    }
  ],
  "accessors": [
    {
      "bufferView": 0,
      "componentType": 5126,
      "count": 32,
      "max": [
        258.20147705078125,
        255.99539184570312,
        96.73178100585938
      ],
      "min": [
        210.1704559326172,
        207.96438598632812,
        0.00002479129034327343
      ],
      "type": "VEC3"
    },
    {
      "bufferView": 1,
      "componentType": 5125,
      "count": 162,
      "max": [
        31
      ],
      "min": [
        0
      ],
      "type": "SCALAR"
    },
    {
      "bufferView": 2,
      "componentType": 5126,
      "count": 49,
      "max": [
        330.5360412597656,
        328.3299255371094,
        265.9906311035156
      ],
      "min": [
        137.83590698242188,
        135.6298370361328,
        75.70858001708984
      ],
      "type": "VEC3"
    },
    {
      "bufferView": 3,
      "componentType": 5125,
      "count": 264,
      "max": [
        48
      ],
      "min": [
        0
      ],
      "type": "SCALAR"
    }
  ],
  "materials": [
    {
      "pbrMetallicRoughness": {
        "baseColorFactor": [
          0.2019999772310257,
          0.06499999761581421,
          0,
          1
        ],
        "metallicFactor": 0,
        "roughnessFactor": 1
      },
      "name": "Tree2BarkMaterial"
    },
    {
      "pbrMetallicRoughness": {
        "baseColorFactor": [
          0.03326869383454323,
          0.2529430091381073,
          0.009702459909021854,
          1
        ],
        "metallicFactor": 0,
        "roughnessFactor": 1
      },
      "name": "Tree2LeafMaterial"
    }
  ],
  "meshes": [
    {
      "primitives": [
        {
          "mode": 4,
          "attributes": {
            "POSITION": 0
          },
          "indices": 1,
          "material": 0
        }
      ]
    },
    {
      "primitives": [
        {
          "mode": 4,
          "attributes": {
            "POSITION": 2
          },
          "indices": 3,
          "material": 1
        }
      ]
    }
  ]
}
