{
  "asset": {
    "version": "2.0",
    "generator": "THREE.GLTFExporter"
  },
  "scenes": [
    {
      "nodes": [
        9
      ],
      "name": "Scene"
    }
  ],
  "scene": 0,
  "nodes": [
    {
      "name": "mesh_0_0",
      "mesh": 0
    },
    {
      "name": "mesh_0_1",
      "mesh": 1
    },
    {
      "name": "mesh_0_2",
      "mesh": 2
    },
    {
      "name": "mesh_0_3",
      "mesh": 3
    },
    {
      "name": "mesh_0_4",
      "mesh": 4
    },
    {
      "name": "mesh_0_5",
      "mesh": 5
    },
    {
      "name": "mesh_0_6",
      "mesh": 6
    },
    {
      "name": "mesh_0_7",
      "mesh": 7
    },
    {
      "matrix": [
        1,
        0,
        0,
        0,
        0,
        -1.1920928977282498e-7,
        -0.9999998807907106,
        0,
        0,
        0.9999998807907106,
        -1.1920928977282498e-7,
        0,
        17.33474349975586,
        0.6682765483856201,
        -7.966477966192542e-8,
        1
      ],
      "children": [
        0,
        1,
        2,
        3,
        4,
        5,
        6,
        7
      ]
    },
    {
      "matrix": [
        1,
        0,
        0,
        0,
        0,
        1,
        0,
        0,
        0,
        0,
        1,
        0,
        7.7147998901744685,
        0,
        31.687133659958825,
        1
      ],
      "name": "Fern_modified",
      "children": [
        8
      ]
    }
  ],
  "bufferViews": [
    {
      "buffer": 0,
      "byteOffset": 0,
      "byteLength": 3072,
      "target": 34962,
      "byteStride": 12
    },
    {
      "buffer": 0,
      "byteOffset": 3072,
      "byteLength": 5640,
      "target": 34963
    },
    {
      "buffer": 0,
      "byteOffset": 8712,
      "byteLength": 336,
      "target": 34962,
      "byteStride": 12
    },
    {
      "buffer": 0,
      "byteOffset": 9048,
      "byteLength": 224,
      "target": 34962,
      "byteStride": 8
    },
    {
      "buffer": 0,
      "byteOffset": 9272,
      "byteLength": 624,
      "target": 34963
    },
    {
      "buffer": 0,
      "byteOffset": 9896,
      "byteLength": 336,
      "target": 34962,
      "byteStride": 12
    },
    {
      "buffer": 0,
      "byteOffset": 10232,
      "byteLength": 224,
      "target": 34962,
      "byteStride": 8
    },
    {
      "buffer": 0,
      "byteOffset": 10456,
      "byteLength": 624,
      "target": 34963
    },
    {
      "buffer": 0,
      "byteOffset": 11080,
      "byteLength": 336,
      "target": 34962,
      "byteStride": 12
    },
    {
      "buffer": 0,
      "byteOffset": 11416,
      "byteLength": 224,
      "target": 34962,
      "byteStride": 8
    },
    {
      "buffer": 0,
      "byteOffset": 11640,
      "byteLength": 624,
      "target": 34963
    },
    {
      "buffer": 0,
      "byteOffset": 12264,
      "byteLength": 336,
      "target": 34962,
      "byteStride": 12
    },
    {
      "buffer": 0,
      "byteOffset": 12600,
      "byteLength": 224,
      "target": 34962,
      "byteStride": 8
    },
    {
      "buffer": 0,
      "byteOffset": 12824,
      "byteLength": 624,
      "target": 34963
    },
    {
      "buffer": 0,
      "byteOffset": 13448,
      "byteLength": 336,
      "target": 34962,
      "byteStride": 12
    },
    {
      "buffer": 0,
      "byteOffset": 13784,
      "byteLength": 224,
      "target": 34962,
      "byteStride": 8
    },
    {
      "buffer": 0,
      "byteOffset": 14008,
      "byteLength": 624,
      "target": 34963
    },
    {
      "buffer": 0,
      "byteOffset": 14632,
      "byteLength": 336,
      "target": 34962,
      "byteStride": 12
    },
    {
      "buffer": 0,
      "byteOffset": 14968,
      "byteLength": 224,
      "target": 34962,
      "byteStride": 8
    },
    {
      "buffer": 0,
      "byteOffset": 15192,
      "byteLength": 624,
      "target": 34963
    },
    {
      "buffer": 0,
      "byteOffset": 15816,
      "byteLength": 336,
      "target": 34962,
      "byteStride": 12
    },
    {
      "buffer": 0,
      "byteOffset": 16152,
      "byteLength": 224,
      "target": 34962,
      "byteStride": 8
    },
    {
      "buffer": 0,
      "byteOffset": 16376,
      "byteLength": 624,
      "target": 34963
    }
  ],
  "buffers": [
    {
      "byteLength": 17000,
      "uri": "data:application/octet-stream;base64,"
    }
  ],
  "accessors": [
    {
      "bufferView": 0,
      "componentType": 5126,
      "count": 256,
      "max": [
        16.198156356811523,
        69.65390014648438,
        42.290348052978516
      ],
      "min": [
        -46.16379165649414,
        -12.457948684692383,
        0.000008254704880528152
      ],
      "type": "VEC3"
    },
    {
      "bufferView": 1,
      "componentType": 5125,
      "count": 1410,
      "max": [
        255
      ],
      "min": [
        0
      ],
      "type": "SCALAR"
    },
    {
      "bufferView": 2,
      "componentType": 5126,
      "count": 28,
      "max": [
        13.380590438842773,
        37.19391632080078,
        59.127506256103516
      ],
      "min": [
        -16.85584259033203,
        19.766647338867188,
        0.05434685945510864
      ],
      "type": "VEC3"
    },
    {
      "bufferView": 3,
      "componentType": 5126,
      "count": 28,
      "max": [
        1,
        1
      ],
      "min": [
        0,
        0
      ],
      "type": "VEC2"
    },
    {
      "bufferView": 4,
      "componentType": 5125,
      "count": 156,
      "max": [
        27
      ],
      "min": [
        0
      ],
      "type": "SCALAR"
    },
    {
      "bufferView": 5,
      "componentType": 5126,
      "count": 28,
      "max": [
        -16.14031982421875,
        66.82292175292969,
        59.12751007080078
      ],
      "min": [
        -33.56759262084961,
        36.58650207519531,
        0.054348934441804886
      ],
      "type": "VEC3"
    },
    {
      "bufferView": 6,
      "componentType": 5126,
      "count": 28,
      "max": [
        1,
        1
      ],
      "min": [
        0,
        0
      ],
      "type": "VEC2"
    },
    {
      "bufferView": 7,
      "componentType": 5125,
      "count": 156,
      "max": [
        27
      ],
      "min": [
        0
      ],
      "type": "SCALAR"
    },
    {
      "bufferView": 8,
      "componentType": 5126,
      "count": 28,
      "max": [
        -32.48319625854492,
        37.315391540527344,
        59.127506256103516
      ],
      "min": [
        -62.719627380371094,
        19.888124465942383,
        0.054346874356269836
      ],
      "type": "VEC3"
    },
    {
      "bufferView": 9,
      "componentType": 5126,
      "count": 28,
      "max": [
        1,
        1
      ],
      "min": [
        0,
        0
      ],
      "type": "VEC2"
    },
    {
      "bufferView": 10,
      "componentType": 5125,
      "count": 156,
      "max": [
        27
      ],
      "min": [
        0
      ],
      "type": "SCALAR"
    },
    {
      "bufferView": 11,
      "componentType": 5126,
      "count": 28,
      "max": [
        -8.36532974243164,
        32.80803680419922,
        42.29033660888672
      ],
      "min": [
        -21.756959915161133,
        25.318172454833984,
        0.0388740710914135
      ],
      "type": "VEC3"
    },
    {
      "bufferView": 12,
      "componentType": 5126,
      "count": 28,
      "max": [
        1,
        1
      ],
      "min": [
        0,
        0
      ],
      "type": "VEC2"
    },
    {
      "bufferView": 13,
      "componentType": 5125,
      "count": 156,
      "max": [
        27
      ],
      "min": [
        0
      ],
      "type": "SCALAR"
    },
    {
      "bufferView": 14,
      "componentType": 5126,
      "count": 28,
      "max": [
        -15.86366081237793,
        20.60538673400879,
        59.12749099731445
      ],
      "min": [
        -33.290931701660156,
        -9.631044387817383,
        0.05434689298272133
      ],
      "type": "VEC3"
    },
    {
      "bufferView": 15,
      "componentType": 5126,
      "count": 28,
      "max": [
        1,
        1
      ],
      "min": [
        5.960464477539063e-8,
        0
      ],
      "type": "VEC2"
    },
    {
      "bufferView": 16,
      "componentType": 5125,
      "count": 156,
      "max": [
        27
      ],
      "min": [
        0
      ],
      "type": "SCALAR"
    },
    {
      "bufferView": 17,
      "componentType": 5126,
      "count": 28,
      "max": [
        -33.059730529785156,
        37.96269989013672,
        31.635398864746094
      ],
      "min": [
        -65.53377532958984,
        19.245744705200195,
        0.029081378132104874
      ],
      "type": "VEC3"
    },
    {
      "bufferView": 18,
      "componentType": 5126,
      "count": 28,
      "max": [
        1,
        0.9999999403953552
      ],
      "min": [
        0,
        0
      ],
      "type": "VEC2"
    },
    {
      "bufferView": 19,
      "componentType": 5125,
      "count": 156,
      "max": [
        27
      ],
      "min": [
        0
      ],
      "type": "SCALAR"
    },
    {
      "bufferView": 20,
      "componentType": 5126,
      "count": 28,
      "max": [
        -23.114992141723633,
        27.859107971191406,
        39.973670959472656
      ],
      "min": [
        -40.87152862548828,
        7.29913330078125,
        0.03674446418881416
      ],
      "type": "VEC3"
    },
    {
      "bufferView": 21,
      "componentType": 5126,
      "count": 28,
      "max": [
        1,
        1
      ],
      "min": [
        0,
        0
      ],
      "type": "VEC2"
    },
    {
      "bufferView": 22,
      "componentType": 5125,
      "count": 156,
      "max": [
        27
      ],
      "min": [
        0
      ],
      "type": "SCALAR"
    }
  ],
  "materials": [
    {
      "pbrMetallicRoughness": {
        "baseColorFactor": [
          0.06237569823861122,
          0.800000011920929,
          0.00575006939470768,
          1
        ],
        "metallicFactor": 0,
        "roughnessFactor": 1
      },
      "name": "FernMaterial"
    },
    {
      "pbrMetallicRoughness": {
        "metallicFactor": 0,
        "roughnessFactor": 1,
        "baseColorTexture": {
          "index": 0
        }
      }
    }
  ],
  "meshes": [
    {
      "primitives": [
        {
          "mode": 4,
          "attributes": {
            "POSITION": 0
          },
          "indices": 1,
          "material": 0
        }
      ]
    },
    {
      "primitives": [
        {
          "mode": 4,
          "attributes": {
            "POSITION": 2,
            "TEXCOORD_0": 3
          },
          "indices": 4,
          "material": 1
        }
      ]
    },
    {
      "primitives": [
        {
          "mode": 4,
          "attributes": {
            "POSITION": 5,
            "TEXCOORD_0": 6
          },
          "indices": 7,
          "material": 1
        }
      ]
    },
    {
      "primitives": [
        {
          "mode": 4,
          "attributes": {
            "POSITION": 8,
            "TEXCOORD_0": 9
          },
          "indices": 10,
          "material": 1
        }
      ]
    },
    {
      "primitives": [
        {
          "mode": 4,
          "attributes": {
            "POSITION": 11,
            "TEXCOORD_0": 12
          },
          "indices": 13,
          "material": 1
        }
      ]
    },
    {
      "primitives": [
        {
          "mode": 4,
          "attributes": {
            "POSITION": 14,
            "TEXCOORD_0": 15
          },
          "indices": 16,
          "material": 1
        }
      ]
    },
    {
      "primitives": [
        {
          "mode": 4,
          "attributes": {
            "POSITION": 17,
            "TEXCOORD_0": 18
          },
          "indices": 19,
          "material": 1
        }
      ]
    },
    {
      "primitives": [
        {
          "mode": 4,
          "attributes": {
            "POSITION": 20,
            "TEXCOORD_0": 21
          },
          "indices": 22,
          "material": 1
        }
      ]
    }
  ],
  "textures": [
    {
      "sampler": 0,
      "source": 0
    }
  ],
  "samplers": [
    {
      "magFilter": 9729,
      "minFilter": 9987,
      "wrapS": 10497,
      "wrapT": 10497
    }
  ],
  "images": [
    {
      "mimeType": "image/jpeg",
      "uri": "data:image/jpeg;base64,"
    }
  ]
}
