{
  "asset": {
    "version": "2.0",
    "generator": "THREE.GLTFExporter"
  },
  "scenes": [
    {
      "nodes": [
        9
      ],
      "name": "Scene"
    }
  ],
  "scene": 0,
  "nodes": [
    {
      "name": "mesh_0_0",
      "mesh": 0
    },
    {
      "name": "mesh_0_1",
      "mesh": 1
    },
    {
      "name": "mesh_0_2",
      "mesh": 2
    },
    {
      "name": "mesh_0_3",
      "mesh": 3
    },
    {
      "name": "mesh_0_4",
      "mesh": 4
    },
    {
      "name": "mesh_0_5",
      "mesh": 5
    },
    {
      "name": "mesh_0_6",
      "mesh": 6
    },
    {
      "name": "mesh_0_7",
      "mesh": 7
    },
    {
      "matrix": [
        39.370079040527344,
        0,
        0,
        0,
        0,
        -0.000004693279160553429,
        -39.37007522583008,
        0,
        0,
        39.37007522583008,
        -0.000004693279160553429,
        0,
        7.33402681350708,
        -0.6962812542915344,
        28.59707260131836,
        1
      ],
      "children": [
        0,
        1,
        2,
        3,
        4,
        5,
        6,
        7
      ]
    },
    {
      "name": "Fern_modified",
      "children": [
        8
      ]
    }
  ],
  "bufferViews": [
    {
      "buffer": 0,
      "byteOffset": 0,
      "byteLength": 7584,
      "target": 34962,
      "byteStride": 12
    },
    {
      "buffer": 0,
      "byteOffset": 7584,
      "byteLength": 12036,
      "target": 34963
    },
    {
      "buffer": 0,
      "byteOffset": 19620,
      "byteLength": 2244,
      "target": 34962,
      "byteStride": 12
    },
    {
      "buffer": 0,
      "byteOffset": 21864,
      "byteLength": 1496,
      "target": 34962,
      "byteStride": 8
    },
    {
      "buffer": 0,
      "byteOffset": 23360,
      "byteLength": 1932,
      "target": 34963
    },
    {
      "buffer": 0,
      "byteOffset": 25292,
      "byteLength": 1656,
      "target": 34962,
      "byteStride": 12
    },
    {
      "buffer": 0,
      "byteOffset": 26948,
      "byteLength": 1104,
      "target": 34962,
      "byteStride": 8
    },
    {
      "buffer": 0,
      "byteOffset": 28052,
      "byteLength": 1536,
      "target": 34963
    },
    {
      "buffer": 0,
      "byteOffset": 29588,
      "byteLength": 2208,
      "target": 34962,
      "byteStride": 12
    },
    {
      "buffer": 0,
      "byteOffset": 31796,
      "byteLength": 1472,
      "target": 34962,
      "byteStride": 8
    },
    {
      "buffer": 0,
      "byteOffset": 33268,
      "byteLength": 1980,
      "target": 34963
    },
    {
      "buffer": 0,
      "byteOffset": 35248,
      "byteLength": 1392,
      "target": 34962,
      "byteStride": 12
    },
    {
      "buffer": 0,
      "byteOffset": 36640,
      "byteLength": 928,
      "target": 34962,
      "byteStride": 8
    },
    {
      "buffer": 0,
      "byteOffset": 37568,
      "byteLength": 1224,
      "target": 34963
    },
    {
      "buffer": 0,
      "byteOffset": 38792,
      "byteLength": 1752,
      "target": 34962,
      "byteStride": 12
    },
    {
      "buffer": 0,
      "byteOffset": 40544,
      "byteLength": 1168,
      "target": 34962,
      "byteStride": 8
    },
    {
      "buffer": 0,
      "byteOffset": 41712,
      "byteLength": 1584,
      "target": 34963
    },
    {
      "buffer": 0,
      "byteOffset": 43296,
      "byteLength": 1536,
      "target": 34962,
      "byteStride": 12
    },
    {
      "buffer": 0,
      "byteOffset": 44832,
      "byteLength": 1024,
      "target": 34962,
      "byteStride": 8
    },
    {
      "buffer": 0,
      "byteOffset": 45856,
      "byteLength": 1464,
      "target": 34963
    },
    {
      "buffer": 0,
      "byteOffset": 47320,
      "byteLength": 1620,
      "target": 34962,
      "byteStride": 12
    },
    {
      "buffer": 0,
      "byteOffset": 48940,
      "byteLength": 1080,
      "target": 34962,
      "byteStride": 8
    },
    {
      "buffer": 0,
      "byteOffset": 50020,
      "byteLength": 1356,
      "target": 34963
    }
  ],
  "buffers": [
    {
      "byteLength": 51376,
      "uri": "data:application/octet-stream;base64,"
    }
  ],
  "accessors": [
    {
      "bufferView": 0,
      "componentType": 5126,
      "count": 632,
      "max": [
        0.8516866564750671,
        1.7691621780395508,
        1.0911405086517334
      ],
      "min": [
        -0.7322573661804199,
        -0.31643179059028625,
        0.017685631290078163
      ],
      "type": "VEC3"
    },
    {
      "bufferView": 1,
      "componentType": 5125,
      "count": 3009,
      "max": [
        631
      ],
      "min": [
        0
      ],
      "type": "SCALAR"
    },
    {
      "bufferView": 2,
      "componentType": 5126,
      "count": 187,
      "max": [
        0.7801602482795715,
        0.9447291493415833,
        1.5187748670578003
      ],
      "min": [
        0.01211505476385355,
        0.5020578503608704,
        0.018346032127738
      ],
      "type": "VEC3"
    },
    {
      "bufferView": 3,
      "componentType": 5126,
      "count": 187,
      "max": [
        1,
        1
      ],
      "min": [
        -2.842170943040401e-14,
        0
      ],
      "type": "VEC2"
    },
    {
      "bufferView": 4,
      "componentType": 5125,
      "count": 483,
      "max": [
        186
      ],
      "min": [
        0
      ],
      "type": "SCALAR"
    },
    {
      "bufferView": 5,
      "componentType": 5126,
      "count": 138,
      "max": [
        0.030301444232463837,
        1.6972802877426147,
        1.5187748670578003
      ],
      "min": [
        -0.41231897473335266,
        0.9292858839035034,
        0.018346032127738
      ],
      "type": "VEC3"
    },
    {
      "bufferView": 6,
      "componentType": 5126,
      "count": 138,
      "max": [
        1,
        1
      ],
      "min": [
        0,
        0
      ],
      "type": "VEC2"
    },
    {
      "bufferView": 7,
      "componentType": 5125,
      "count": 384,
      "max": [
        137
      ],
      "min": [
        0
      ],
      "type": "SCALAR"
    },
    {
      "bufferView": 8,
      "componentType": 5126,
      "count": 184,
      "max": [
        -0.38478532433509827,
        0.9477770328521729,
        1.5187748670578003
      ],
      "min": [
        -1.1527798175811768,
        0.5051566362380981,
        0.018346032127738
      ],
      "type": "VEC3"
    },
    {
      "bufferView": 9,
      "componentType": 5126,
      "count": 184,
      "max": [
        1,
        1
      ],
      "min": [
        0,
        0
      ],
      "type": "VEC2"
    },
    {
      "bufferView": 10,
      "componentType": 5125,
      "count": 495,
      "max": [
        183
      ],
      "min": [
        0
      ],
      "type": "SCALAR"
    },
    {
      "bufferView": 11,
      "componentType": 5126,
      "count": 116,
      "max": [
        0.22781187295913696,
        0.8333247303962708,
        1.0911405086517334
      ],
      "min": [
        -0.11234498023986816,
        0.643078625202179,
        0.017939630895853043
      ],
      "type": "VEC3"
    },
    {
      "bufferView": 12,
      "componentType": 5126,
      "count": 116,
      "max": [
        1,
        1
      ],
      "min": [
        -5.960464477539063e-8,
        0
      ],
      "type": "VEC2"
    },
    {
      "bufferView": 13,
      "componentType": 5125,
      "count": 306,
      "max": [
        115
      ],
      "min": [
        0
      ],
      "type": "SCALAR"
    },
    {
      "bufferView": 14,
      "componentType": 5126,
      "count": 146,
      "max": [
        0.03736264258623123,
        0.523343026638031,
        1.5187748670578003
      ],
      "min": [
        -0.4053085744380951,
        -0.24465139210224152,
        0.018346032127738
      ],
      "type": "VEC3"
    },
    {
      "bufferView": 15,
      "componentType": 5126,
      "count": 146,
      "max": [
        1,
        1
      ],
      "min": [
        5.960464477539063e-8,
        0
      ],
      "type": "VEC2"
    },
    {
      "bufferView": 16,
      "componentType": 5125,
      "count": 396,
      "max": [
        145
      ],
      "min": [
        0
      ],
      "type": "SCALAR"
    },
    {
      "bufferView": 17,
      "componentType": 5126,
      "count": 128,
      "max": [
        -0.3994666039943695,
        0.9642362594604492,
        0.8204780220985413
      ],
      "min": [
        -1.2242554426193237,
        0.4887990355491638,
        0.017685631290078163
      ],
      "type": "VEC3"
    },
    {
      "bufferView": 18,
      "componentType": 5126,
      "count": 128,
      "max": [
        1,
        0.9999999403953552
      ],
      "min": [
        0,
        0
      ],
      "type": "VEC2"
    },
    {
      "bufferView": 19,
      "componentType": 5125,
      "count": 366,
      "max": [
        127
      ],
      "min": [
        0
      ],
      "type": "SCALAR"
    },
    {
      "bufferView": 20,
      "componentType": 5126,
      "count": 135,
      "max": [
        -0.14683812856674194,
        0.707594633102417,
        1.0322632789611816
      ],
      "min": [
        -0.5978406071662903,
        0.18537060916423798,
        0.017888830974698067
      ],
      "type": "VEC3"
    },
    {
      "bufferView": 21,
      "componentType": 5126,
      "count": 135,
      "max": [
        1.000000238418579,
        1
      ],
      "min": [
        -2.7554042958399805e-7,
        -3.5762786865234375e-7
      ],
      "type": "VEC2"
    },
    {
      "bufferView": 22,
      "componentType": 5125,
      "count": 339,
      "max": [
        134
      ],
      "min": [
        0
      ],
      "type": "SCALAR"
    }
  ],
  "materials": [
    {
      "pbrMetallicRoughness": {
        "baseColorFactor": [
          0.06237569823861122,
          0.800000011920929,
          0.00575006939470768,
          1
        ],
        "metallicFactor": 0,
        "roughnessFactor": 1
      },
      "name": "FernMaterial"
    },
    {
      "pbrMetallicRoughness": {
        "metallicFactor": 0,
        "roughnessFactor": 1,
        "baseColorTexture": {
          "index": 0
        }
      }
    }
  ],
  "meshes": [
    {
      "primitives": [
        {
          "mode": 4,
          "attributes": {
            "POSITION": 0
          },
          "indices": 1,
          "material": 0
        }
      ]
    },
    {
      "primitives": [
        {
          "mode": 4,
          "attributes": {
            "POSITION": 2,
            "TEXCOORD_0": 3
          },
          "indices": 4,
          "material": 1
        }
      ]
    },
    {
      "primitives": [
        {
          "mode": 4,
          "attributes": {
            "POSITION": 5,
            "TEXCOORD_0": 6
          },
          "indices": 7,
          "material": 1
        }
      ]
    },
    {
      "primitives": [
        {
          "mode": 4,
          "attributes": {
            "POSITION": 8,
            "TEXCOORD_0": 9
          },
          "indices": 10,
          "material": 1
        }
      ]
    },
    {
      "primitives": [
        {
          "mode": 4,
          "attributes": {
            "POSITION": 11,
            "TEXCOORD_0": 12
          },
          "indices": 13,
          "material": 1
        }
      ]
    },
    {
      "primitives": [
        {
          "mode": 4,
          "attributes": {
            "POSITION": 14,
            "TEXCOORD_0": 15
          },
          "indices": 16,
          "material": 1
        }
      ]
    },
    {
      "primitives": [
        {
          "mode": 4,
          "attributes": {
            "POSITION": 17,
            "TEXCOORD_0": 18
          },
          "indices": 19,
          "material": 1
        }
      ]
    },
    {
      "primitives": [
        {
          "mode": 4,
          "attributes": {
            "POSITION": 20,
            "TEXCOORD_0": 21
          },
          "indices": 22,
          "material": 1
        }
      ]
    }
  ],
  "textures": [
    {
      "sampler": 0,
      "source": 0
    }
  ],
  "samplers": [
    {
      "magFilter": 9729,
      "minFilter": 9987,
      "wrapS": 10497,
      "wrapT": 10497
    }
  ],
  "images": [
    {
      "mimeType": "image/jpeg",
      "uri": "data:image/jpeg;base64,"
    }
  ]
}
