{
  "asset": {
    "version": "2.0",
    "generator": "THREE.GLTFExporter"
  },
  "scenes": [
    {
      "nodes": [
        10
      ],
      "name": "Scene"
    }
  ],
  "scene": 0,
  "nodes": [
    {
      "matrix": [
        1,
        0,
        0,
        0,
        0,
        -1.1920928977282498e-7,
        -0.9999998807907106,
        0,
        0,
        0.9999998807907106,
        -1.1920928977282498e-7,
        0,
        -403.8882751464844,
        -0.000014867477148072794,
        -124.71742248535156,
        1
      ],
      "name": "mesh_2",
      "mesh": 0
    },
    {
      "matrix": [
        1,
        0,
        0,
        0,
        0,
        -1.1920928977282498e-7,
        -0.9999998807907106,
        0,
        0,
        0.9999998807907106,
        -1.1920928977282498e-7,
        0,
        -403.8882751464844,
        -0.000014867477148072794,
        -124.71742248535156,
        1
      ],
      "name": "mesh_3",
      "mesh": 1
    },
    {
      "matrix": [
        1,
        0,
        0,
        0,
        0,
        -1.1920928977282498e-7,
        -0.9999998807907106,
        0,
        0,
        0.9999998807907106,
        -1.1920928977282498e-7,
        0,
        -403.8882751464844,
        -0.000014867477148072794,
        -124.71742248535156,
        1
      ],
      "name": "mesh_0",
      "mesh": 2
    },
    {
      "matrix": [
        1,
        0,
        0,
        0,
        0,
        -1.1920928977282498e-7,
        -0.9999998807907106,
        0,
        0,
        0.9999998807907106,
        -1.1920928977282498e-7,
        0,
        -403.8882751464844,
        -0.000014867477148072794,
        -124.71742248535156,
        1
      ],
      "name": "mesh_6",
      "mesh": 3
    },
    {
      "matrix": [
        1,
        0,
        0,
        0,
        0,
        -1.1920928977282498e-7,
        -0.9999998807907106,
        0,
        0,
        0.9999998807907106,
        -1.1920928977282498e-7,
        0,
        -403.8882751464844,
        -0.000014867477148072794,
        -124.71742248535156,
        1
      ],
      "name": "mesh_7",
      "mesh": 4
    },
    {
      "matrix": [
        1,
        0,
        0,
        0,
        0,
        -1.1920928977282498e-7,
        -0.9999998807907106,
        0,
        0,
        0.9999998807907106,
        -1.1920928977282498e-7,
        0,
        -403.8882751464844,
        -0.000014867477148072794,
        -124.71742248535156,
        1
      ],
      "name": "mesh_1",
      "mesh": 5
    },
    {
      "matrix": [
        1,
        0,
        0,
        0,
        0,
        -1.1920928977282498e-7,
        -0.9999998807907106,
        0,
        0,
        0.9999998807907106,
        -1.1920928977282498e-7,
        0,
        -403.8882751464844,
        -0.000014867477148072794,
        -124.71742248535156,
        1
      ],
      "name": "mesh_9",
      "mesh": 6
    },
    {
      "matrix": [
        1,
        0,
        0,
        0,
        0,
        -1.1920928977282498e-7,
        -0.9999998807907106,
        0,
        0,
        0.9999998807907106,
        -1.1920928977282498e-7,
        0,
        -403.8882751464844,
        -0.000014867477148072794,
        -124.71742248535156,
        1
      ],
      "name": "mesh_4",
      "mesh": 7
    },
    {
      "matrix": [
        1,
        0,
        0,
        0,
        0,
        -1.1920928977282498e-7,
        -0.9999998807907106,
        0,
        0,
        0.9999998807907106,
        -1.1920928977282498e-7,
        0,
        -403.8882751464844,
        -0.000014867477148072794,
        -124.71742248535156,
        1
      ],
      "name": "mesh_5",
      "mesh": 8
    },
    {
      "matrix": [
        1,
        0,
        0,
        0,
        0,
        -1.1920928977282498e-7,
        -0.9999998807907106,
        0,
        0,
        0.9999998807907106,
        -1.1920928977282498e-7,
        0,
        -403.8882751464844,
        -0.000014867477148072794,
        -124.71742248535156,
        1
      ],
      "name": "mesh_8",
      "mesh": 9
    },
    {
      "name": "grassland_tree_SC_05_trees_red_SC_mat_0_modified",
      "children": [
        0,
        1,
        2,
        3,
        4,
        5,
        6,
        7,
        8,
        9
      ]
    }
  ],
  "bufferViews": [
    {
      "buffer": 0,
      "byteOffset": 0,
      "byteLength": 408,
      "target": 34962,
      "byteStride": 12
    },
    {
      "buffer": 0,
      "byteOffset": 408,
      "byteLength": 768,
      "target": 34963
    },
    {
      "buffer": 0,
      "byteOffset": 1176,
      "byteLength": 408,
      "target": 34962,
      "byteStride": 12
    },
    {
      "buffer": 0,
      "byteOffset": 1584,
      "byteLength": 768,
      "target": 34963
    },
    {
      "buffer": 0,
      "byteOffset": 2352,
      "byteLength": 960,
      "target": 34962,
      "byteStride": 12
    },
    {
      "buffer": 0,
      "byteOffset": 3312,
      "byteLength": 640,
      "target": 34962,
      "byteStride": 8
    },
    {
      "buffer": 0,
      "byteOffset": 3952,
      "byteLength": 1872,
      "target": 34963
    },
    {
      "buffer": 0,
      "byteOffset": 5824,
      "byteLength": 504,
      "target": 34962,
      "byteStride": 12
    },
    {
      "buffer": 0,
      "byteOffset": 6328,
      "byteLength": 336,
      "target": 34962,
      "byteStride": 8
    },
    {
      "buffer": 0,
      "byteOffset": 6664,
      "byteLength": 960,
      "target": 34963
    },
    {
      "buffer": 0,
      "byteOffset": 7624,
      "byteLength": 504,
      "target": 34962,
      "byteStride": 12
    },
    {
      "buffer": 0,
      "byteOffset": 8128,
      "byteLength": 336,
      "target": 34962,
      "byteStride": 8
    },
    {
      "buffer": 0,
      "byteOffset": 8464,
      "byteLength": 960,
      "target": 34963
    },
    {
      "buffer": 0,
      "byteOffset": 9424,
      "byteLength": 1116,
      "target": 34962,
      "byteStride": 12
    },
    {
      "buffer": 0,
      "byteOffset": 10540,
      "byteLength": 744,
      "target": 34962,
      "byteStride": 8
    },
    {
      "buffer": 0,
      "byteOffset": 11284,
      "byteLength": 2184,
      "target": 34963
    },
    {
      "buffer": 0,
      "byteOffset": 13468,
      "byteLength": 408,
      "target": 34962,
      "byteStride": 12
    },
    {
      "buffer": 0,
      "byteOffset": 13876,
      "byteLength": 272,
      "target": 34962,
      "byteStride": 8
    },
    {
      "buffer": 0,
      "byteOffset": 14148,
      "byteLength": 768,
      "target": 34963
    },
    {
      "buffer": 0,
      "byteOffset": 14916,
      "byteLength": 960,
      "target": 34962,
      "byteStride": 12
    },
    {
      "buffer": 0,
      "byteOffset": 15876,
      "byteLength": 640,
      "target": 34962,
      "byteStride": 8
    },
    {
      "buffer": 0,
      "byteOffset": 16516,
      "byteLength": 1872,
      "target": 34963
    },
    {
      "buffer": 0,
      "byteOffset": 18388,
      "byteLength": 960,
      "target": 34962,
      "byteStride": 12
    },
    {
      "buffer": 0,
      "byteOffset": 19348,
      "byteLength": 640,
      "target": 34962,
      "byteStride": 8
    },
    {
      "buffer": 0,
      "byteOffset": 19988,
      "byteLength": 1872,
      "target": 34963
    },
    {
      "buffer": 0,
      "byteOffset": 21860,
      "byteLength": 504,
      "target": 34962,
      "byteStride": 12
    },
    {
      "buffer": 0,
      "byteOffset": 22364,
      "byteLength": 336,
      "target": 34962,
      "byteStride": 8
    },
    {
      "buffer": 0,
      "byteOffset": 22700,
      "byteLength": 960,
      "target": 34963
    }
  ],
  "buffers": [
    {
      "byteLength": 23660,
      "uri": "data:application/octet-stream;base64,"
    }
  ],
  "accessors": [
    {
      "bufferView": 0,
      "componentType": 5126,
      "count": 34,
      "max": [
        400.62042236328125,
        -126.1363296508789,
        59.651607513427734
      ],
      "min": [
        386.1544189453125,
        -143.4150390625,
        38.79825210571289
      ],
      "type": "VEC3"
    },
    {
      "bufferView": 1,
      "componentType": 5125,
      "count": 192,
      "max": [
        33
      ],
      "min": [
        0
      ],
      "type": "SCALAR"
    },
    {
      "bufferView": 2,
      "componentType": 5126,
      "count": 34,
      "max": [
        435.803955078125,
        -105.71464538574219,
        72.76050567626953
      ],
      "min": [
        408.00238037109375,
        -124.00230407714844,
        47.07685089111328
      ],
      "type": "VEC3"
    },
    {
      "bufferView": 3,
      "componentType": 5125,
      "count": 192,
      "max": [
        33
      ],
      "min": [
        0
      ],
      "type": "SCALAR"
    },
    {
      "bufferView": 4,
      "componentType": 5126,
      "count": 80,
      "max": [
        436.6683044433594,
        -92.53524780273438,
        176.0436553955078
      ],
      "min": [
        385.82427978515625,
        -144.18423461914062,
        140.72821044921875
      ],
      "type": "VEC3"
    },
    {
      "bufferView": 5,
      "componentType": 5126,
      "count": 80,
      "max": [
        1,
        0.9999997615814209
      ],
      "min": [
        0,
        -2.384185791015625e-7
      ],
      "type": "VEC2"
    },
    {
      "bufferView": 6,
      "componentType": 5125,
      "count": 468,
      "max": [
        79
      ],
      "min": [
        0
      ],
      "type": "SCALAR"
    },
    {
      "bufferView": 7,
      "componentType": 5126,
      "count": 42,
      "max": [
        429.03057861328125,
        -144.445068359375,
        121.3154296875
      ],
      "min": [
        391.88214111328125,
        -182.28546142578125,
        90.32437896728516
      ],
      "type": "VEC3"
    },
    {
      "bufferView": 8,
      "componentType": 5126,
      "count": 42,
      "max": [
        1,
        1
      ],
      "min": [
        0,
        0
      ],
      "type": "VEC2"
    },
    {
      "bufferView": 9,
      "componentType": 5125,
      "count": 240,
      "max": [
        41
      ],
      "min": [
        0
      ],
      "type": "SCALAR"
    },
    {
      "bufferView": 10,
      "componentType": 5126,
      "count": 42,
      "max": [
        401.3097229003906,
        -126.92566680908203,
        72.53272247314453
      ],
      "min": [
        375.0014953613281,
        -154.56271362304688,
        52.37852096557617
      ],
      "type": "VEC3"
    },
    {
      "bufferView": 11,
      "componentType": 5126,
      "count": 42,
      "max": [
        1,
        1
      ],
      "min": [
        0,
        0
      ],
      "type": "VEC2"
    },
    {
      "bufferView": 12,
      "componentType": 5125,
      "count": 240,
      "max": [
        41
      ],
      "min": [
        0
      ],
      "type": "SCALAR"
    },
    {
      "bufferView": 13,
      "componentType": 5126,
      "count": 93,
      "max": [
        419.4618225097656,
        -108.96754455566406,
        111.43900299072266
      ],
      "min": [
        392.29449462890625,
        -136.1745147705078,
        -3.410605131648481e-13
      ],
      "type": "VEC3"
    },
    {
      "bufferView": 14,
      "componentType": 5126,
      "count": 93,
      "max": [
        1,
        1
      ],
      "min": [
        0,
        0
      ],
      "type": "VEC2"
    },
    {
      "bufferView": 15,
      "componentType": 5125,
      "count": 546,
      "max": [
        92
      ],
      "min": [
        0
      ],
      "type": "SCALAR"
    },
    {
      "bufferView": 16,
      "componentType": 5126,
      "count": 34,
      "max": [
        417.8778991699219,
        -127.83637237548828,
        101.68702697753906
      ],
      "min": [
        402.2496032714844,
        -165.6552276611328,
        73.62969207763672
      ],
      "type": "VEC3"
    },
    {
      "bufferView": 17,
      "componentType": 5126,
      "count": 34,
      "max": [
        1,
        1.0000001192092896
      ],
      "min": [
        0,
        1.1920928955078125e-7
      ],
      "type": "VEC2"
    },
    {
      "bufferView": 18,
      "componentType": 5125,
      "count": 192,
      "max": [
        33
      ],
      "min": [
        0
      ],
      "type": "SCALAR"
    },
    {
      "bufferView": 19,
      "componentType": 5126,
      "count": 80,
      "max": [
        446.7096252441406,
        -82.08694458007812,
        153.9973602294922
      ],
      "min": [
        365.58843994140625,
        -163.47494506835938,
        101.05060577392578
      ],
      "type": "VEC3"
    },
    {
      "bufferView": 20,
      "componentType": 5126,
      "count": 80,
      "max": [
        1,
        1
      ],
      "min": [
        0,
        0
      ],
      "type": "VEC2"
    },
    {
      "bufferView": 21,
      "componentType": 5125,
      "count": 468,
      "max": [
        79
      ],
      "min": [
        0
      ],
      "type": "SCALAR"
    },
    {
      "bufferView": 22,
      "componentType": 5126,
      "count": 80,
      "max": [
        412.0025329589844,
        -67.14940643310547,
        163.55731201171875
      ],
      "min": [
        354.9577941894531,
        -123.93933868408203,
        124.17162322998047
      ],
      "type": "VEC3"
    },
    {
      "bufferView": 23,
      "componentType": 5126,
      "count": 80,
      "max": [
        1,
        1
      ],
      "min": [
        0,
        0
      ],
      "type": "VEC2"
    },
    {
      "bufferView": 24,
      "componentType": 5125,
      "count": 468,
      "max": [
        79
      ],
      "min": [
        0
      ],
      "type": "SCALAR"
    },
    {
      "bufferView": 25,
      "componentType": 5126,
      "count": 42,
      "max": [
        452.8187561035156,
        -90.33462524414062,
        92.84408569335938
      ],
      "min": [
        413.4369201660156,
        -128.1940155029297,
        66.45792388916016
      ],
      "type": "VEC3"
    },
    {
      "bufferView": 26,
      "componentType": 5126,
      "count": 42,
      "max": [
        1,
        1
      ],
      "min": [
        0,
        0
      ],
      "type": "VEC2"
    },
    {
      "bufferView": 27,
      "componentType": 5125,
      "count": 240,
      "max": [
        41
      ],
      "min": [
        0
      ],
      "type": "SCALAR"
    }
  ],
  "materials": [
    {
      "pbrMetallicRoughness": {
        "metallicFactor": 1,
        "roughnessFactor": 1
      }
    },
    {
      "pbrMetallicRoughness": {
        "metallicFactor": 0,
        "roughnessFactor": 1,
        "baseColorTexture": {
          "index": 0
        }
      }
    },
    {
      "pbrMetallicRoughness": {
        "metallicFactor": 0,
        "roughnessFactor": 1,
        "baseColorTexture": {
          "index": 1
        }
      }
    },
    {
      "pbrMetallicRoughness": {
        "metallicFactor": 0,
        "roughnessFactor": 1,
        "baseColorTexture": {
          "index": 2
        }
      }
    }
  ],
  "meshes": [
    {
      "primitives": [
        {
          "mode": 4,
          "attributes": {
            "POSITION": 0
          },
          "indices": 1,
          "material": 0
        }
      ]
    },
    {
      "primitives": [
        {
          "mode": 4,
          "attributes": {
            "POSITION": 2
          },
          "indices": 3,
          "material": 0
        }
      ]
    },
    {
      "primitives": [
        {
          "mode": 4,
          "attributes": {
            "POSITION": 4,
            "TEXCOORD_0": 5
          },
          "indices": 6,
          "material": 1
        }
      ]
    },
    {
      "primitives": [
        {
          "mode": 4,
          "attributes": {
            "POSITION": 7,
            "TEXCOORD_0": 8
          },
          "indices": 9,
          "material": 1
        }
      ]
    },
    {
      "primitives": [
        {
          "mode": 4,
          "attributes": {
            "POSITION": 10,
            "TEXCOORD_0": 11
          },
          "indices": 12,
          "material": 1
        }
      ]
    },
    {
      "primitives": [
        {
          "mode": 4,
          "attributes": {
            "POSITION": 13,
            "TEXCOORD_0": 14
          },
          "indices": 15,
          "material": 2
        }
      ]
    },
    {
      "primitives": [
        {
          "mode": 4,
          "attributes": {
            "POSITION": 16,
            "TEXCOORD_0": 17
          },
          "indices": 18,
          "material": 2
        }
      ]
    },
    {
      "primitives": [
        {
          "mode": 4,
          "attributes": {
            "POSITION": 19,
            "TEXCOORD_0": 20
          },
          "indices": 21,
          "material": 3
        }
      ]
    },
    {
      "primitives": [
        {
          "mode": 4,
          "attributes": {
            "POSITION": 22,
            "TEXCOORD_0": 23
          },
          "indices": 24,
          "material": 3
        }
      ]
    },
    {
      "primitives": [
        {
          "mode": 4,
          "attributes": {
            "POSITION": 25,
            "TEXCOORD_0": 26
          },
          "indices": 27,
          "material": 3
        }
      ]
    }
  ],
  "textures": [
    {
      "sampler": 0,
      "source": 0
    },
    {
      "sampler": 1,
      "source": 1
    },
    {
      "sampler": 2,
      "source": 2
    }
  ],
  "samplers": [
    {
      "magFilter": 9729,
      "minFilter": 9987,
      "wrapS": 10497,
      "wrapT": 10497
    },
    {
      "magFilter": 9729,
      "minFilter": 9987,
      "wrapS": 10497,
      "wrapT": 10497
    },
    {
      "magFilter": 9729,
      "minFilter": 9987,
      "wrapS": 10497,
      "wrapT": 10497
    }
  ],
  "images": [
    {
      "mimeType": "image/jpeg",
      "uri": "data:image/jpeg;base64,"
    },
    {
      "mimeType": "image/jpeg",
      "uri": "data:image/jpeg;base64,"
    },
    {
      "mimeType": "image/jpeg",
      "uri": "data:image/jpeg;base64,"
    }
  ]
}
