{
  "asset": {
    "version": "2.0",
    "generator": "THREE.GLTFExporter"
  },
  "scenes": [
    {
      "nodes": [
        6
      ],
      "name": "Scene"
    }
  ],
  "scene": 0,
  "nodes": [
    {
      "matrix": [
        1,
        0,
        0,
        0,
        0,
        -1.1920928977282498e-7,
        -0.9999998807907106,
        0,
        0,
        0.9999998807907106,
        -1.1920928977282498e-7,
        0,
        17.33474349975586,
        0.6682765483856201,
        -7.966477966192542e-8,
        1
      ],
      "name": "mesh_0",
      "mesh": 0
    },
    {
      "name": "mesh_1_0",
      "mesh": 1
    },
    {
      "name": "mesh_1_1",
      "mesh": 2
    },
    {
      "name": "mesh_1_2",
      "mesh": 3
    },
    {
      "name": "mesh_1_3",
      "mesh": 4
    },
    {
      "matrix": [
        1,
        0,
        0,
        0,
        0,
        -1.1920928977282498e-7,
        -0.9999998807907106,
        0,
        0,
        0.9999998807907106,
        -1.1920928977282498e-7,
        0,
        17.33474349975586,
        0.6682765483856201,
        -7.966477966192542e-8,
        1
      ],
      "children": [
        1,
        2,
        3,
        4
      ]
    },
    {
      "matrix": [
        1,
        0,
        0,
        0,
        0,
        1,
        0,
        0,
        0,
        0,
        1,
        0,
        -19.805105811381907,
        0,
        231.15740275128957,
        1
      ],
      "name": "Tree3_modified",
      "children": [
        0,
        5
      ]
    }
  ],
  "bufferViews": [
    {
      "buffer": 0,
      "byteOffset": 0,
      "byteLength": 384,
      "target": 34962,
      "byteStride": 12
    },
    {
      "buffer": 0,
      "byteOffset": 384,
      "byteLength": 648,
      "target": 34963
    },
    {
      "buffer": 0,
      "byteOffset": 1032,
      "byteLength": 576,
      "target": 34962,
      "byteStride": 12
    },
    {
      "buffer": 0,
      "byteOffset": 1608,
      "byteLength": 576,
      "target": 34963
    },
    {
      "buffer": 0,
      "byteOffset": 2184,
      "byteLength": 192,
      "target": 34962,
      "byteStride": 12
    },
    {
      "buffer": 0,
      "byteOffset": 2376,
      "byteLength": 128,
      "target": 34962,
      "byteStride": 8
    },
    {
      "buffer": 0,
      "byteOffset": 2504,
      "byteLength": 192,
      "target": 34963
    },
    {
      "buffer": 0,
      "byteOffset": 2696,
      "byteLength": 108,
      "target": 34962,
      "byteStride": 12
    },
    {
      "buffer": 0,
      "byteOffset": 2804,
      "byteLength": 72,
      "target": 34962,
      "byteStride": 8
    },
    {
      "buffer": 0,
      "byteOffset": 2876,
      "byteLength": 96,
      "target": 34963
    },
    {
      "buffer": 0,
      "byteOffset": 2972,
      "byteLength": 192,
      "target": 34962,
      "byteStride": 12
    },
    {
      "buffer": 0,
      "byteOffset": 3164,
      "byteLength": 128,
      "target": 34962,
      "byteStride": 8
    },
    {
      "buffer": 0,
      "byteOffset": 3292,
      "byteLength": 192,
      "target": 34963
    }
  ],
  "buffers": [
    {
      "byteLength": 3484,
      "uri": "data:application/octet-stream;base64,"
    }
  ],
  "accessors": [
    {
      "bufferView": 0,
      "componentType": 5126,
      "count": 32,
      "max": [
        24.46845054626465,
        251.54052734375,
        96.73178100585938
      ],
      "min": [
        -10.09037971496582,
        216.98171997070312,
        0.000025866238502203487
      ],
      "type": "VEC3"
    },
    {
      "bufferView": 1,
      "componentType": 5125,
      "count": 162,
      "max": [
        31
      ],
      "min": [
        0
      ],
      "type": "SCALAR"
    },
    {
      "bufferView": 2,
      "componentType": 5126,
      "count": 48,
      "max": [
        81.4609603881836,
        308.53302001953125,
        223.43914794921875
      ],
      "min": [
        -67.08289337158203,
        159.98919677734375,
        75.70858764648438
      ],
      "type": "VEC3"
    },
    {
      "bufferView": 3,
      "componentType": 5125,
      "count": 144,
      "max": [
        47
      ],
      "min": [
        0
      ],
      "type": "SCALAR"
    },
    {
      "bufferView": 4,
      "componentType": 5126,
      "count": 16,
      "max": [
        71.1401596069336,
        298.21221923828125,
        223.43914794921875
      ],
      "min": [
        -56.762107849121094,
        170.30999755859375,
        106.05654907226562
      ],
      "type": "VEC3"
    },
    {
      "bufferView": 5,
      "componentType": 5126,
      "count": 16,
      "max": [
        1,
        1
      ],
      "min": [
        2.9802322387695312e-8,
        0
      ],
      "type": "VEC2"
    },
    {
      "bufferView": 6,
      "componentType": 5125,
      "count": 48,
      "max": [
        15
      ],
      "min": [
        0
      ],
      "type": "SCALAR"
    },
    {
      "bufferView": 7,
      "componentType": 5126,
      "count": 9,
      "max": [
        55.239471435546875,
        282.3115539550781,
        265.9906311035156
      ],
      "min": [
        -40.861419677734375,
        186.21066284179688,
        155.63949584960938
      ],
      "type": "VEC3"
    },
    {
      "bufferView": 8,
      "componentType": 5126,
      "count": 9,
      "max": [
        1,
        1
      ],
      "min": [
        0,
        0
      ],
      "type": "VEC2"
    },
    {
      "bufferView": 9,
      "componentType": 5125,
      "count": 24,
      "max": [
        8
      ],
      "min": [
        0
      ],
      "type": "SCALAR"
    },
    {
      "bufferView": 10,
      "componentType": 5126,
      "count": 16,
      "max": [
        81.4609603881836,
        308.53302001953125,
        144.4601287841797
      ],
      "min": [
        -67.08289337158203,
        159.98919677734375,
        75.70858764648438
      ],
      "type": "VEC3"
    },
    {
      "bufferView": 11,
      "componentType": 5126,
      "count": 16,
      "max": [
        1,
        1
      ],
      "min": [
        0,
        0
      ],
      "type": "VEC2"
    },
    {
      "bufferView": 12,
      "componentType": 5125,
      "count": 48,
      "max": [
        15
      ],
      "min": [
        0
      ],
      "type": "SCALAR"
    }
  ],
  "materials": [
    {
      "pbrMetallicRoughness": {
        "baseColorFactor": [
          0.2019999772310257,
          0.06499999761581421,
          0,
          1
        ],
        "metallicFactor": 0,
        "roughnessFactor": 1
      },
      "name": "Tree3BarkMaterial"
    },
    {
      "pbrMetallicRoughness": {
        "baseColorFactor": [
          0.03326869383454323,
          0.2529430091381073,
          0.009702459909021854,
          1
        ],
        "metallicFactor": 0,
        "roughnessFactor": 1
      },
      "name": "Tree3LeafMaterial"
    },
    {
      "pbrMetallicRoughness": {
        "metallicFactor": 0,
        "roughnessFactor": 1,
        "baseColorTexture": {
          "index": 0
        }
      }
    }
  ],
  "meshes": [
    {
      "primitives": [
        {
          "mode": 4,
          "attributes": {
            "POSITION": 0
          },
          "indices": 1,
          "material": 0
        }
      ]
    },
    {
      "primitives": [
        {
          "mode": 4,
          "attributes": {
            "POSITION": 2
          },
          "indices": 3,
          "material": 1
        }
      ]
    },
    {
      "primitives": [
        {
          "mode": 4,
          "attributes": {
            "POSITION": 4,
            "TEXCOORD_0": 5
          },
          "indices": 6,
          "material": 2
        }
      ]
    },
    {
      "primitives": [
        {
          "mode": 4,
          "attributes": {
            "POSITION": 7,
            "TEXCOORD_0": 8
          },
          "indices": 9,
          "material": 2
        }
      ]
    },
    {
      "primitives": [
        {
          "mode": 4,
          "attributes": {
            "POSITION": 10,
            "TEXCOORD_0": 11
          },
          "indices": 12,
          "material": 2
        }
      ]
    }
  ],
  "textures": [
    {
      "sampler": 0,
      "source": 0
    }
  ],
  "samplers": [
    {
      "magFilter": 9729,
      "minFilter": 9987,
      "wrapS": 10497,
      "wrapT": 10497
    }
  ],
  "images": [
    {
      "mimeType": "image/jpeg",
      "uri": "data:image/jpeg;base64,"
    }
  ]
}
