{
  "asset": {
    "version": "2.0",
    "generator": "THREE.GLTFExporter"
  },
  "scenes": [
    {
      "nodes": [
        4
      ],
      "name": "Scene"
    }
  ],
  "scene": 0,
  "nodes": [
    {
      "matrix": [
        1,
        0,
        0,
        0,
        0,
        -1.1920928977282498e-7,
        -0.9999998807907106,
        0,
        0,
        0.9999998807907106,
        -1.1920928977282498e-7,
        0,
        17.33474349975586,
        0.6682765483856201,
        -7.966477966192542e-8,
        1
      ],
      "name": "mesh_0",
      "mesh": 0
    },
    {
      "name": "mesh_1_0",
      "mesh": 1
    },
    {
      "name": "mesh_1_1",
      "mesh": 2
    },
    {
      "matrix": [
        1,
        0,
        0,
        0,
        0,
        -1.1920928977282498e-7,
        -0.9999998807907106,
        0,
        0,
        0.9999998807907106,
        -1.1920928977282498e-7,
        0,
        17.33474349975586,
        0.6682765483856201,
        -7.966477966192542e-8,
        1
      ],
      "children": [
        1,
        2
      ]
    },
    {
      "matrix": [
        1,
        0,
        0,
        0,
        0,
        1,
        0,
        0,
        0,
        0,
        1,
        0,
        -257.3802287859288,
        0.3558503069195744,
        229.29515771847878,
        1
      ],
      "name": "Tree2_modified",
      "children": [
        0,
        3
      ]
    }
  ],
  "bufferViews": [
    {
      "buffer": 0,
      "byteOffset": 0,
      "byteLength": 384,
      "target": 34962,
      "byteStride": 12
    },
    {
      "buffer": 0,
      "byteOffset": 384,
      "byteLength": 648,
      "target": 34963
    },
    {
      "buffer": 0,
      "byteOffset": 1032,
      "byteLength": 588,
      "target": 34962,
      "byteStride": 12
    },
    {
      "buffer": 0,
      "byteOffset": 1620,
      "byteLength": 864,
      "target": 34963
    },
    {
      "buffer": 0,
      "byteOffset": 2484,
      "byteLength": 192,
      "target": 34962,
      "byteStride": 12
    },
    {
      "buffer": 0,
      "byteOffset": 2676,
      "byteLength": 128,
      "target": 34962,
      "byteStride": 8
    },
    {
      "buffer": 0,
      "byteOffset": 2804,
      "byteLength": 192,
      "target": 34963
    }
  ],
  "buffers": [
    {
      "byteLength": 2996,
      "uri": "data:application/octet-stream;base64,"
    }
  ],
  "accessors": [
    {
      "bufferView": 0,
      "componentType": 5126,
      "count": 32,
      "max": [
        258.20147705078125,
        255.99539184570312,
        96.73178100585938
      ],
      "min": [
        210.1704559326172,
        207.96438598632812,
        0.00002479129034327343
      ],
      "type": "VEC3"
    },
    {
      "bufferView": 1,
      "componentType": 5125,
      "count": 162,
      "max": [
        31
      ],
      "min": [
        0
      ],
      "type": "SCALAR"
    },
    {
      "bufferView": 2,
      "componentType": 5126,
      "count": 49,
      "max": [
        330.5360412597656,
        328.3299255371094,
        265.9906311035156
      ],
      "min": [
        137.83590698242188,
        135.6298370361328,
        75.70858001708984
      ],
      "type": "VEC3"
    },
    {
      "bufferView": 3,
      "componentType": 5125,
      "count": 216,
      "max": [
        48
      ],
      "min": [
        0
      ],
      "type": "SCALAR"
    },
    {
      "bufferView": 4,
      "componentType": 5126,
      "count": 16,
      "max": [
        330.5360412597656,
        328.3299255371094,
        144.4601287841797
      ],
      "min": [
        137.83590698242188,
        135.6298370361328,
        75.70858001708984
      ],
      "type": "VEC3"
    },
    {
      "bufferView": 5,
      "componentType": 5126,
      "count": 16,
      "max": [
        1,
        1
      ],
      "min": [
        0,
        5.960464477539063e-8
      ],
      "type": "VEC2"
    },
    {
      "bufferView": 6,
      "componentType": 5125,
      "count": 48,
      "max": [
        15
      ],
      "min": [
        0
      ],
      "type": "SCALAR"
    }
  ],
  "materials": [
    {
      "pbrMetallicRoughness": {
        "baseColorFactor": [
          0.2019999772310257,
          0.06499999761581421,
          0,
          1
        ],
        "metallicFactor": 0,
        "roughnessFactor": 1
      },
      "name": "Tree2BarkMaterial"
    },
    {
      "pbrMetallicRoughness": {
        "baseColorFactor": [
          0.03326869383454323,
          0.2529430091381073,
          0.009702459909021854,
          1
        ],
        "metallicFactor": 0,
        "roughnessFactor": 1
      },
      "name": "Tree2LeafMaterial"
    },
    {
      "pbrMetallicRoughness": {
        "metallicFactor": 0,
        "roughnessFactor": 1,
        "baseColorTexture": {
          "index": 0
        }
      }
    }
  ],
  "meshes": [
    {
      "primitives": [
        {
          "mode": 4,
          "attributes": {
            "POSITION": 0
          },
          "indices": 1,
          "material": 0
        }
      ]
    },
    {
      "primitives": [
        {
          "mode": 4,
          "attributes": {
            "POSITION": 2
          },
          "indices": 3,
          "material": 1
        }
      ]
    },
    {
      "primitives": [
        {
          "mode": 4,
          "attributes": {
            "POSITION": 4,
            "TEXCOORD_0": 5
          },
          "indices": 6,
          "material": 2
        }
      ]
    }
  ],
  "textures": [
    {
      "sampler": 0,
      "source": 0
    }
  ],
  "samplers": [
    {
      "magFilter": 9729,
      "minFilter": 9987,
      "wrapS": 10497,
      "wrapT": 10497
    }
  ],
  "images": [
    {
      "mimeType": "image/jpeg",
      "uri": "data:image/jpeg;base64,"
    }
  ]
}
